<?xml version="1.0" encoding="UTF-8" standalone="no"?>
<!DOCTYPE svg PUBLIC "-//W3C//DTD SVG 1.1//EN" "http://www.w3.org/Graphics/SVG/1.1/DTD/svg11.dtd">
<svg width="100%" height="100%" viewBox="0 0 600 600" version="1.1" xmlns="http://www.w3.org/2000/svg" xmlns:xlink="http://www.w3.org/1999/xlink" xml:space="preserve" xmlns:serif="http://www.serif.com/" style="fill-rule:evenodd;clip-rule:evenodd;stroke-linejoin:round;stroke-miterlimit:2;">
    <g transform="matrix(1,0,0,1,0,-1455)">
        <g id="SVG" transform="matrix(2.09059,0,0,1.86335,-1835.54,1199.72)">
            <rect x="878" y="137" width="287" height="322" style="fill:none;"/>
            <g transform="matrix(1.2,0,0,1.2,-204.3,-16.6208)">
                <g>
                    <clipPath id="_clip1">
                        <path d="M1084.48,138.625C1087.15,137.229 1090.23,137.229 1092.9,138.625C1103,143.906 1127.74,156.85 1127.74,156.85C1135.88,161.11 1141.08,170.277 1141.08,180.357L1141.08,334.167C1141.08,344.595 1135.7,354.079 1127.27,358.486L1031.61,408.536C1025.2,411.889 1017.8,411.889 1011.39,408.536L915.726,358.486C907.302,354.079 901.917,344.595 901.917,334.167L901.917,180.928C901.917,170.5 907.302,161.016 915.726,156.609C915.726,156.609 940.093,143.86 950.099,138.625C952.769,137.229 955.853,137.229 958.522,138.625C970.072,144.668 1002.27,161.514 1015.6,168.489C1019.34,170.444 1023.66,170.444 1027.4,168.489C1040.73,161.514 1072.93,144.668 1084.48,138.625Z"/>
                    </clipPath>
                    <g clip-path="url(#_clip1)">
                        <g>
                            <g>
                                <clipPath id="_clip2">
                                    <path d="M972.036,387.946L972.036,224.454L1070.96,224.454L1070.96,387.946L1021.5,364.841L972.036,387.946Z"/>
                                </clipPath>
                                <g clip-path="url(#_clip2)">
                                    <g transform="matrix(0.478333,0,0,0.536667,877.398,96.5474)">
                                        <path d="M197.848,542.979L196.59,327.157L301.258,327.157L301.258,586.031L197.848,542.979Z" style="fill:rgb(26,98,157);"/>
                                    </g>
                                    <g transform="matrix(-0.478333,0,0,0.536667,1115.54,96.5474)">
                                        <path d="M93.18,542.979L93.18,327.157L196.59,327.157L196.59,586.031L93.18,542.979Z" style="fill:rgb(80,160,226);"/>
                                    </g>
                                </g>
                            </g>
                            <g>
                                <g transform="matrix(0.352053,0,0,0.500436,848.439,49.5312)">
                                    <path d="M300,251.22L175,297.226L50,251.22L175,205.214L300,251.22Z" style="fill:rgb(133,187,231);"/>
                                </g>
                                <g transform="matrix(0.352053,0,0,0.500436,1070.14,45.9075)">
                                    <path d="M300,251.22L175,297.226L50,251.22L175,205.214L300,251.22Z" style="fill:rgb(133,187,231);"/>
                                </g>
                            </g>
                            <g>
                                <g>
                                    <clipPath id="_clip3">
                                        <path d="M996.768,285.061L996.768,418.547L901.917,418.547L901.917,235.437L833.485,199.635L1021.5,101.27L1209.52,199.635L1141.08,235.437L1141.08,418.547L1046.23,418.547L1046.23,285.061C1046.23,285.061 1034.71,291.088 1027.4,294.915C1023.66,296.871 1019.34,296.871 1015.6,294.915C1008.29,291.088 996.768,285.061 996.768,285.061Z"/>
                                    </clipPath>
                                    <g clip-path="url(#_clip3)">
                                        <g transform="matrix(0.478333,0,0,1.01545,901.917,-106.148)">
                                            <path d="M353.41,377.354C353.41,376.3 352.392,375.319 350.711,374.753C349.03,374.187 346.918,374.114 345.111,374.559C320.563,380.609 250,397.999 250,397.999L250,327.485L478.661,271.133C483.306,269.988 488.736,270.176 493.059,271.631C497.383,273.087 500,275.608 500,278.317L500,450.45L353.41,486.577L353.41,377.354Z" style="fill:rgb(54,127,186);"/>
                                        </g>
                                        <g transform="matrix(-0.478333,0,0,1.01545,1141.08,-117.665)">
                                            <path d="M250,338.826L250,409.341C250,409.341 320.563,391.951 345.111,385.901C346.918,385.456 349.03,385.529 350.711,386.095C352.392,386.661 353.41,387.642 353.41,388.695C353.41,410.424 353.41,497.918 353.41,497.918L500,461.792L500,289.659C500,286.95 497.383,284.428 493.059,282.973C488.736,281.517 483.306,281.329 478.661,282.474L250,338.826Z" style="fill:rgb(80,161,226);"/>
                                        </g>
                                        <g transform="matrix(-0.119888,0,0,0.134508,1051.47,203.351)">
                                            <path d="M250,116.577C250,116.577 355.138,67.55 429.05,33.085C444.496,25.882 462.55,27.065 476.924,36.222C491.297,45.379 500,61.242 500,78.285C500,107.368 500,133.423 500,133.423L250,250L250,116.577Z" style="fill:rgb(80,161,226);"/>
                                        </g>
                                        <g transform="matrix(0.107147,0,0,0.120213,994.713,206.925)">
                                            <path d="M250,116.577C250,116.577 347.403,71.157 420.613,37.019C437.895,28.96 458.097,30.284 474.18,40.53C490.263,50.776 500,68.525 500,87.594C500,112.703 500,133.423 500,133.423L250,250L250,116.577Z" style="fill:rgb(54,127,186);"/>
                                        </g>
                                    </g>
                                </g>
                            </g>
                            <g transform="matrix(0.956667,0,0,1.35988,854.083,-177.796)">
                                <path d="M300,251.22C300,251.22 206.333,285.694 181.163,294.958C177.256,296.396 172.744,296.396 168.837,294.958C143.667,285.694 50,251.22 50,251.22L175,205.214L300,251.22Z" style="fill:rgb(133,187,231);"/>
                            </g>
                        </g>
                    </g>
                </g>
            </g>
        </g>
    </g>
</svg>
